<svg width="245" height="116" viewBox="0 0 245 116" fill="none" xmlns="http://www.w3.org/2000/svg">
<path d="M146.632 4.38894C151.494 3.47957 156.407 2.77351 161.349 2.14162C166.295 1.55643 171.275 1.10587 176.287 0.822893C186.31 0.262435 196.464 0.366836 206.656 1.65259C211.748 2.32844 216.849 3.30099 221.894 4.84225C226.912 6.41098 231.952 8.52644 236.364 11.9908C238.546 13.7162 240.555 15.8069 241.994 18.2658C242.716 19.4911 243.298 20.7933 243.707 22.134L244.223 24.1698C244.324 24.8539 244.382 25.5407 244.451 26.2303C244.549 26.9254 244.473 27.593 244.453 28.2743C244.426 28.9557 244.398 29.6398 244.253 30.2854C244.132 30.9392 244.025 31.6069 243.874 32.2525L243.292 34.1344C243.114 34.7773 242.831 35.3487 242.578 35.9477C242.307 36.5301 242.087 37.1565 241.763 37.7032C241.14 38.8159 240.539 39.9588 239.803 40.9808C236.979 45.1897 233.498 48.7887 229.781 52.0526C226.05 55.3082 222.026 58.1929 217.892 60.8825C213.744 63.5584 209.481 66.0613 205.083 68.3388C200.686 70.6081 196.214 72.7483 191.668 74.7401C187.117 76.7155 182.508 78.5891 177.822 80.2842C175.497 81.1716 173.125 81.9519 170.778 82.7898C168.403 83.5618 166.048 84.3833 163.654 85.1086C154.104 88.0675 144.395 90.617 134.562 92.7434C124.715 94.8259 114.759 96.565 104.687 97.815C94.61 99.0101 84.4422 99.8398 74.1866 99.9827C63.9392 100.126 53.5984 99.7134 43.2631 98.2381C38.0969 97.4854 32.9224 96.4743 27.7973 95.0073C22.6887 93.5264 17.5856 91.5868 12.8174 88.6994C11.6123 88.0208 10.4786 87.1581 9.3421 86.3366C8.77936 85.9163 8.2523 85.4218 7.71701 84.9602L6.92093 84.2542C6.66839 84.0014 6.42682 83.7322 6.18251 83.4712C4.1731 81.4409 2.56174 78.9408 1.59272 76.2841C0.577037 73.6329 0.308018 70.7894 0.626448 68.1273C0.928408 65.4486 1.84252 62.9623 3.0284 60.7177C5.41388 56.2066 8.77387 52.5031 12.4248 49.2503C16.0813 45.9864 20.0754 43.1677 24.2095 40.5907C32.5134 35.4751 41.3883 31.3294 50.5267 27.8155C55.1 26.0627 59.7254 24.4418 64.4058 22.9747C69.1081 21.5461 73.8242 20.1862 78.6117 19.0268C74.1426 20.8867 69.6901 22.7439 65.3419 24.755C60.9662 26.7166 56.6702 28.7853 52.4784 30.9777C44.1114 35.3625 36.0244 40.1099 28.824 45.5496C25.2334 48.264 21.8268 51.1267 18.9362 54.2285C16.0291 57.3027 13.5448 60.6023 12.1503 63.965C10.7119 67.3333 10.5637 70.5971 11.8758 73.3307C12.5127 74.7071 13.435 75.9984 14.7664 77.155C14.9229 77.3006 15.0684 77.4545 15.2331 77.6001L15.7793 78.0122C16.1527 78.2814 16.4711 78.5809 16.8691 78.8391C17.6872 79.3474 18.4393 79.8914 19.3617 80.3392C22.8726 82.2376 27.0534 83.6635 31.4401 84.7047C35.8267 85.7652 40.4192 86.518 45.0831 87.0207C54.4384 87.9686 64.0297 88.1884 73.6211 87.79C83.2152 87.4246 92.8285 86.5537 102.37 85.2514C111.923 84.0042 121.408 82.298 130.793 80.2733C140.198 78.3007 149.465 75.8803 158.582 73.1604C167.72 70.4817 176.628 67.3058 185.313 63.8139C193.968 60.2836 202.346 56.2945 210.09 51.7146C213.958 49.4234 217.642 46.9535 221.013 44.3023C224.381 41.6566 227.417 38.7829 229.731 35.7251C232.062 32.6756 233.564 29.4419 233.624 26.4171C233.715 23.3923 232.29 20.5131 229.523 17.9718C228.148 16.7108 226.506 15.5349 224.656 14.5047C222.8 13.4826 220.813 12.5458 218.71 11.7189C214.51 10.0622 209.948 8.83414 205.295 7.82587C195.95 5.83404 186.167 4.88346 176.342 4.37246C171.423 4.11696 166.479 4.04827 161.527 4.07575C156.572 4.05377 151.612 4.21586 146.632 4.38894Z" fill="url(#paint0_linear_324_1703)"/>
<path opacity="0.47" d="M18.9361 54.2279C21.8266 51.1262 25.2333 48.2634 28.8239 45.5491C36.027 40.1093 44.1113 35.3619 52.4783 30.9772C56.6673 28.7848 60.9661 26.716 65.3418 24.7544C69.6927 22.7434 74.1425 20.8862 78.6115 19.0262C78.6115 19.0262 -3.79876 46.6645 5.82003 72.8356C15.4416 99.0068 86.575 97.5397 131.704 87.2564C176.833 76.9759 247.426 48.8898 237.755 23.2709C228.526 -1.18046 163.786 1.73447 148.477 4.06147C147.859 4.17136 147.241 4.27301 146.629 4.3884C151.609 4.21532 156.569 4.05322 161.527 4.06696C166.479 4.03949 171.423 4.10817 176.342 4.36367C186.167 4.87468 195.95 5.82526 205.295 7.81708C209.947 8.82536 214.51 10.0534 218.71 11.7101C220.81 12.5343 222.797 13.4739 224.656 14.4959C226.503 15.5261 228.145 16.7047 229.523 17.963C232.287 20.5071 233.714 23.3863 233.624 26.4083C233.563 29.4332 232.065 32.6668 229.731 35.7163C227.42 38.7741 224.381 41.6478 221.013 44.2935C217.642 46.9447 213.958 49.4146 210.09 51.7059C202.346 56.2857 193.968 60.2748 185.313 63.8051C176.63 67.297 167.723 70.4729 158.581 73.1516C149.465 75.8742 140.198 78.2919 130.793 80.2645C121.407 82.2893 111.923 83.9954 102.37 85.2426C92.8283 86.5449 83.2178 87.413 73.6209 87.7812C64.0296 88.1823 54.4383 87.9625 45.083 87.0119C40.4164 86.5092 35.8266 85.7564 31.4399 84.6959C27.0505 83.6574 22.8698 82.2316 19.3615 80.3304C18.4419 79.8826 17.687 79.3359 16.869 78.8304C16.471 78.5721 16.1525 78.2726 15.7792 78.0034L15.2329 77.5913C15.0682 77.4457 14.9227 77.2946 14.7663 77.1462C13.4349 75.9923 12.5153 74.6983 11.8757 73.3219C10.5663 70.5883 10.7118 67.3245 12.1502 63.9562C13.5447 60.6045 16.029 57.3022 18.9361 54.2279Z" fill="url(#paint1_linear_324_1703)"/>
<path d="M27.9731 104.549C37.7264 105.618 47.3974 106.256 57.0409 106.599C66.6789 106.956 76.2757 106.973 85.8149 106.662C95.3486 106.297 104.833 105.695 114.213 104.566C123.601 103.516 132.89 102.016 142.034 100.074C160.347 96.1975 178.149 90.6287 194.869 83.0707C203.241 79.3124 211.342 75.0567 219.081 70.2709C226.816 65.4795 234.264 60.2486 240.975 54.1605C238.782 57.9353 235.955 61.4272 232.943 64.7789C229.946 68.1527 226.619 71.3066 223.13 74.3287C216.135 80.3673 208.325 85.7302 200.008 90.4528C183.337 99.879 164.613 106.61 145.23 110.772C125.808 114.987 105.648 116.404 85.7929 115.426C75.8612 114.901 65.9871 113.824 56.2887 112.058C51.4436 111.162 46.6315 110.157 41.899 108.904C39.5327 108.28 37.1829 107.621 34.8496 106.926C32.5327 106.179 30.2131 105.448 27.9731 104.549Z" fill="url(#paint2_linear_324_1703)"/>
<path opacity="0.47" d="M137.055 107.028C200.831 97.5492 240.973 54.1605 240.973 54.1605C234.261 60.2486 226.814 65.4823 219.078 70.2709C211.34 75.054 203.239 79.3124 194.866 83.0707C178.149 90.6287 160.347 96.1975 142.032 100.074C132.888 102.019 123.601 103.516 114.21 104.566C104.83 105.695 95.3459 106.297 85.8122 106.662C76.273 106.973 66.6762 106.956 57.0382 106.599C47.392 106.256 37.7238 105.615 27.9705 104.549C27.9732 104.549 73.2781 116.506 137.055 107.028Z" fill="url(#paint3_linear_324_1703)"/>
<defs>
<linearGradient id="paint0_linear_324_1703" x1="75.1728" y1="-7.91313" x2="168.931" y2="104.291" gradientUnits="userSpaceOnUse">
<stop stop-color="#B66F29"/>
<stop offset="0.2725" stop-color="#DC9A27"/>
<stop offset="0.5259" stop-color="#EDB31F"/>
<stop offset="0.8091" stop-color="#D7942A"/>
<stop offset="1" stop-color="#B06828"/>
</linearGradient>
<linearGradient id="paint1_linear_324_1703" x1="240.532" y1="-21.6091" x2="53.5204" y2="88.8848" gradientUnits="userSpaceOnUse">
<stop stop-color="white"/>
<stop offset="1" stop-color="white" stop-opacity="0"/>
</linearGradient>
<linearGradient id="paint2_linear_324_1703" x1="33.9071" y1="121.552" x2="236.782" y2="68.5886" gradientUnits="userSpaceOnUse">
<stop stop-color="#B66F29"/>
<stop offset="0.2725" stop-color="#DC9A27"/>
<stop offset="0.5259" stop-color="#EDB31F"/>
<stop offset="0.8091" stop-color="#D7942A"/>
<stop offset="1" stop-color="#B06828"/>
</linearGradient>
<linearGradient id="paint3_linear_324_1703" x1="234.02" y1="30.7832" x2="76.926" y2="114.439" gradientUnits="userSpaceOnUse">
<stop stop-color="white"/>
<stop offset="1" stop-color="white" stop-opacity="0"/>
</linearGradient>
</defs>
</svg>
