<?xml version="1.0" encoding="UTF-8"?>
<svg xmlns="http://www.w3.org/2000/svg" width="32" height="32" viewBox="0 0 32 32" fill="none">
  <path id="Vector" fill-rule="evenodd" clip-rule="evenodd" d="M18.0215 0.69155L20.0539 2.23144C20.6097 2.65258 21.1948 2.86811 21.8881 2.90718L24.4228 3.0499C25.9406 3.13533 27.1734 4.18228 27.52 5.68047L28.0991 8.18242C28.2574 8.86667 28.5688 9.41245 29.075 9.89337L30.9262 11.652C32.0346 12.7049 32.314 14.309 31.6282 15.6822L30.483 17.9755C30.1698 18.6027 30.0616 19.2233 30.144 19.9212L30.4454 22.4727C30.6258 24.0005 29.8212 25.411 28.4238 26.0168L26.0901 27.0285C25.4518 27.3051 24.9749 27.7102 24.5949 28.2984L23.2054 30.4489C22.3733 31.7367 20.8612 32.2937 19.4061 31.8486L16.976 31.1053C16.3114 30.9019 15.6888 30.9019 15.0241 31.1053L12.594 31.8486C11.1389 32.2937 9.62678 31.7367 8.79478 30.4489L7.40524 28.2984C7.02518 27.7102 6.54824 27.3051 5.91004 27.0285L3.57617 26.0167C2.17883 25.4109 1.37423 24.0004 1.55463 22.4726L1.85596 19.921C1.93836 19.2232 1.83023 18.6026 1.51703 17.9754L0.371759 15.6821C-0.313976 14.3089 -0.0345749 12.7049 1.07383 11.6518L2.92497 9.89324C3.43123 9.41231 3.7425 8.86653 3.90084 8.18229L4.4799 5.68034C4.82657 4.18222 6.05931 3.13527 7.57711 3.04977L10.1119 2.90705C10.8051 2.86805 11.3902 2.65245 11.9461 2.23131L13.9785 0.691415C15.1953 -0.230494 16.8045 -0.230494 18.0215 0.69155ZM14.7035 16.8813L12.4979 14.6487C11.9262 14.0701 10.9989 14.0701 10.4273 14.6487C9.85565 15.2274 9.85565 16.1659 10.4273 16.7445L13.6714 20.0281C14.2431 20.6067 15.1703 20.6067 15.7419 20.0281C17.6973 18.0489 19.6305 16.0474 21.5768 14.0591C22.1443 13.4793 22.1425 12.5438 21.5705 11.968C20.9983 11.392 20.0714 11.3937 19.5033 11.9745L14.7035 16.8813ZM15.9999 4.9639C12.9892 4.9639 10.2634 6.19919 8.29031 8.19632C6.31724 10.1935 5.09684 12.9525 5.09684 16C5.09684 19.0474 6.31724 21.8065 8.29031 23.8036C10.2634 25.8007 12.9892 27.036 15.9999 27.036C19.0107 27.036 21.7365 25.8007 23.7096 23.8036C25.6826 21.8065 26.903 19.0474 26.903 16C26.903 12.9525 25.6826 10.1935 23.7096 8.19632C21.7365 6.19919 19.0107 4.9639 15.9999 4.9639ZM22.9553 8.95972C21.1753 7.15801 18.7162 6.04358 15.9999 6.04358C13.2837 6.04358 10.8245 7.15801 9.04452 8.95972C7.26451 10.7614 6.16351 13.2506 6.16351 16C6.16351 18.7494 7.26451 21.2385 9.04452 23.0402C10.8245 24.8419 13.2837 25.9563 15.9999 25.9563C18.7162 25.9563 21.1753 24.8419 22.9553 23.0403C24.7354 21.2386 25.8363 18.7494 25.8363 16C25.8364 13.2506 24.7354 10.7614 22.9553 8.95972Z" fill="url(#paint0_linear_295_1890)"></path>
  <defs>
    <linearGradient id="paint0_linear_295_1890" x1="-16.3579" y1="-3.34066" x2="108.881" y2="49.8072" gradientUnits="userSpaceOnUse">
      <stop stop-color="#FFDC84"></stop>
      <stop offset="0.924301" stop-color="#FFBE4D"></stop>
    </linearGradient>
  </defs>
</svg>
