<?xml version="1.0" encoding="UTF-8"?>
<svg xmlns="http://www.w3.org/2000/svg" width="96" height="100" viewBox="0 0 96 100" fill="none">
  <path opacity="0.5" d="M48 66.9489L32.9142 83.2197C30.7537 85.5499 29.6735 86.715 28.7587 87.1181C26.6741 88.0369 24.3617 87.2506 23.2651 85.2503C22.7839 84.3725 22.6339 82.7891 22.334 79.6224C22.1647 77.8344 22.08 76.9405 21.823 76.1917C21.2476 74.5154 20.0386 73.2114 18.4844 72.5909C17.7902 72.3137 16.9613 72.2224 15.3037 72.0397L15.3036 72.0397C12.3675 71.7163 10.8994 71.5545 10.0855 71.0355C8.23087 69.8528 7.5019 67.3588 8.35371 65.1104C8.72752 64.1238 9.80776 62.9587 11.9682 60.6285L21.823 49.9997L26.7758 44.8405L48 66.9489L69.2242 44.8405L74.177 49.9997L84.0318 60.6285C86.1923 62.9587 87.2725 64.1238 87.6463 65.1104C88.4981 67.3588 87.7691 69.8528 85.9145 71.0355C85.1006 71.5545 83.6325 71.7163 80.6964 72.0397C79.0387 72.2224 78.2098 72.3137 77.5156 72.5909C75.9614 73.2114 74.7524 74.5154 74.177 76.1917C73.92 76.9405 73.8353 77.8344 73.666 79.6223V79.6224C73.3661 82.7891 73.2161 84.3725 72.7349 85.2503C71.6383 87.2507 69.3259 88.0369 67.2413 87.1181C66.3265 86.715 65.2463 85.5499 63.0858 83.2197L48 66.9489Z" fill="url(#paint0_linear_702_771)"></path>
  <path fill-rule="evenodd" clip-rule="evenodd" d="M48 66.6667C63.464 66.6667 76 53.6083 76 37.5C76 21.3917 63.464 8.33337 48 8.33337C32.536 8.33337 20 21.3917 20 37.5C20 53.6083 32.536 66.6667 48 66.6667ZM48 25C46.8638 25 46.1038 26.4202 44.5838 29.2605L44.1906 29.9953C43.7586 30.8025 43.5427 31.206 43.2059 31.4723C42.8692 31.7386 42.4498 31.8374 41.6111 32.0351L40.8474 32.2151C37.8958 32.9107 36.42 33.2586 36.0689 34.4347C35.7178 35.6108 36.7239 36.8364 38.7361 39.2874L39.2567 39.9216C39.8285 40.6181 40.1144 40.9663 40.243 41.3972C40.3717 41.828 40.3284 42.2927 40.242 43.222L40.1633 44.068C39.8591 47.3383 39.7069 48.9734 40.6262 49.7003C41.5454 50.4272 42.9272 49.7645 45.6908 48.439L46.4058 48.0961C47.1911 47.7194 47.5838 47.5311 48 47.5311C48.4162 47.5311 48.8089 47.7194 49.5942 48.0961L50.3092 48.439C53.0728 49.7645 54.4546 50.4272 55.3738 49.7003C56.2931 48.9734 56.1409 47.3383 55.8367 44.068L55.758 43.222C55.6716 42.2927 55.6283 41.828 55.757 41.3972C55.8856 40.9664 56.1715 40.6181 56.7433 39.9216L57.2639 39.2874C59.2761 36.8364 60.2822 35.6108 59.9311 34.4347C59.58 33.2586 58.1042 32.9107 55.1526 32.2151L54.3889 32.0351C53.5502 31.8374 53.1308 31.7386 52.7941 31.4723C52.4573 31.206 52.2414 30.8025 51.8094 29.9953L51.4162 29.2605C49.8962 26.4202 49.1362 25 48 25Z" fill="url(#paint1_linear_702_771)"></path>
  <defs>
    <linearGradient id="paint0_linear_702_771" x1="8.14771" y1="66.2594" x2="88.144" y2="65.7028" gradientUnits="userSpaceOnUse">
      <stop stop-color="#FFAF61"></stop>
      <stop offset="0.2725" stop-color="#DC9A27"></stop>
      <stop offset="0.5259" stop-color="#EDB31F"></stop>
      <stop offset="0.8091" stop-color="#D7942A"></stop>
      <stop offset="1" stop-color="#B06828"></stop>
    </linearGradient>
    <linearGradient id="paint1_linear_702_771" x1="20.1034" y1="37.6222" x2="76.1028" y2="37.4227" gradientUnits="userSpaceOnUse">
      <stop stop-color="#FFAF61"></stop>
      <stop offset="0.2725" stop-color="#DC9A27"></stop>
      <stop offset="0.5259" stop-color="#EDB31F"></stop>
      <stop offset="0.8091" stop-color="#D7942A"></stop>
      <stop offset="1" stop-color="#B06828"></stop>
    </linearGradient>
  </defs>
</svg>
