<?xml version="1.0" encoding="UTF-8"?>
<svg xmlns="http://www.w3.org/2000/svg" width="96" height="100" viewBox="0 0 96 100" fill="none">
  <path d="M8 33.3334V50C8 61.7852 8 67.6777 11.5147 71.3389C13.4201 73.3237 15.9551 74.2325 19.6796 74.6486C19.9756 74.2323 20.2558 73.9044 20.4557 73.6754C20.9203 73.1431 21.5095 72.538 22.0808 71.9514L28.0525 65.8174L30.2578 63.4903C31.7072 54.6464 39.0984 47.9167 48.0002 47.9167C56.902 47.9167 64.2933 54.6464 65.7427 63.4903L67.9481 65.8174L73.92 71.9518C74.4912 72.5383 75.0802 73.1432 75.5448 73.6754C75.7447 73.9044 76.0249 74.2323 76.3209 74.6485C80.0451 74.2324 82.58 73.3236 84.4853 71.3389C88 67.6777 88 61.7852 88 50V33.3334C88 21.5483 88 15.6557 84.4853 11.9945C80.9706 8.33337 75.3137 8.33337 64 8.33337H32C20.6863 8.33337 15.0294 8.33337 11.5147 11.9945C8 15.6557 8 21.5483 8 33.3334Z" fill="url(#paint0_linear_702_1237)"></path>
  <path d="M28 36.4583C26.3431 36.4583 25 37.8574 25 39.5833C25 41.3092 26.3431 42.7083 28 42.7083H68C69.6569 42.7083 71 41.3092 71 39.5833C71 37.8574 69.6569 36.4583 68 36.4583H28Z" fill="#1C274D"></path>
  <path d="M33 25C33 23.2741 34.3431 21.875 36 21.875H60C61.6569 21.875 63 23.2741 63 25C63 26.7259 61.6569 28.125 60 28.125H36C34.3431 28.125 33 26.7259 33 25Z" fill="#1C274D"></path>
  <g opacity="0.5">
    <path d="M36.0045 66.3226C36.0015 66.4369 36 66.5516 36 66.6667C36 73.5702 41.3726 79.1667 48 79.1667C54.6274 79.1667 60 73.5702 60 66.6667C60 66.5516 59.9985 66.4369 59.9955 66.3226C59.8206 59.5781 54.517 54.1667 48 54.1667C41.7868 54.1667 36.6765 59.0854 36.062 65.3886C36.0319 65.6968 36.0126 66.0082 36.0045 66.3226Z" fill="url(#paint1_linear_702_1237)"></path>
    <path d="M30.7028 71.8723L26.3809 76.3117C25.0847 77.6432 24.4365 78.309 24.2122 78.8728C23.7011 80.1576 24.1385 81.5827 25.2513 82.2586C25.7397 82.5552 26.6205 82.6476 28.3821 82.8324C29.3768 82.9368 29.8741 82.989 30.2907 83.1474C31.2232 83.502 31.9486 84.2471 32.2938 85.205C32.448 85.6329 32.4988 86.1437 32.6004 87.1654C32.7804 88.9749 32.8703 89.8797 33.1591 90.3814C33.817 91.5244 35.2044 91.9737 36.4552 91.4487C37.0041 91.2183 37.6522 90.5525 38.9485 89.221L43.2702 84.7627C37.2202 83.0509 32.4367 78.135 30.7028 71.8723Z" fill="url(#paint2_linear_702_1237)"></path>
    <path d="M52.7298 84.7627L57.0515 89.221C58.3478 90.5525 58.9959 91.2183 59.5448 91.4487C60.7956 91.9737 62.183 91.5244 62.8409 90.3814C63.1297 89.8797 63.2196 88.9749 63.3996 87.1654C63.5012 86.1437 63.552 85.6329 63.7062 85.205C64.0514 84.2471 64.7768 83.502 65.7093 83.1474C66.1259 82.989 66.6232 82.9368 67.6179 82.8324C69.3795 82.6476 70.2603 82.5552 70.7487 82.2586C71.8615 81.5827 72.2989 80.1576 71.7878 78.8728C71.5635 78.309 70.9153 77.6432 69.6191 76.3117L65.2972 71.8723C63.5633 78.135 58.7798 83.0509 52.7298 84.7627Z" fill="url(#paint3_linear_702_1237)"></path>
  </g>
  <defs>
    <linearGradient id="paint0_linear_702_1237" x1="8.14771" y1="41.6298" x2="88.1463" y2="41.2718" gradientUnits="userSpaceOnUse">
      <stop stop-color="#FFAF61"></stop>
      <stop offset="0.2725" stop-color="#DC9A27"></stop>
      <stop offset="0.5259" stop-color="#EDB31F"></stop>
      <stop offset="0.8091" stop-color="#D7942A"></stop>
      <stop offset="1" stop-color="#B06828"></stop>
    </linearGradient>
    <linearGradient id="paint1_linear_702_1237" x1="24.0886" y1="72.9952" x2="72.0876" y2="72.7673" gradientUnits="userSpaceOnUse">
      <stop stop-color="#FFAF61"></stop>
      <stop offset="0.2725" stop-color="#DC9A27"></stop>
      <stop offset="0.5259" stop-color="#EDB31F"></stop>
      <stop offset="0.8091" stop-color="#D7942A"></stop>
      <stop offset="1" stop-color="#B06828"></stop>
    </linearGradient>
    <linearGradient id="paint2_linear_702_1237" x1="24.0886" y1="72.9952" x2="72.0876" y2="72.7673" gradientUnits="userSpaceOnUse">
      <stop stop-color="#FFAF61"></stop>
      <stop offset="0.2725" stop-color="#DC9A27"></stop>
      <stop offset="0.5259" stop-color="#EDB31F"></stop>
      <stop offset="0.8091" stop-color="#D7942A"></stop>
      <stop offset="1" stop-color="#B06828"></stop>
    </linearGradient>
    <linearGradient id="paint3_linear_702_1237" x1="24.0886" y1="72.9952" x2="72.0876" y2="72.7673" gradientUnits="userSpaceOnUse">
      <stop stop-color="#FFAF61"></stop>
      <stop offset="0.2725" stop-color="#DC9A27"></stop>
      <stop offset="0.5259" stop-color="#EDB31F"></stop>
      <stop offset="0.8091" stop-color="#D7942A"></stop>
      <stop offset="1" stop-color="#B06828"></stop>
    </linearGradient>
  </defs>
</svg>
