<?xml version="1.0" encoding="UTF-8"?>
<svg xmlns="http://www.w3.org/2000/svg" width="27" height="32" viewBox="0 0 27 32" fill="none">
  <g id="Group">
    <g id="Group_2">
      <path id="Vector" d="M25.7973 7.34397L13.7047 0.149906C13.3686 -0.0499688 12.9501 -0.0499688 12.614 0.149906L0.521313 7.34397C0.198125 7.53628 0 7.88466 0 8.26072V12.3674C0 21.017 4.9975 28.9172 12.7742 31.928C13.0218 32.0239 13.2966 32.024 13.5444 31.928C21.3023 28.9247 26.3186 21.0417 26.3186 12.3674V8.26072C26.3186 7.8846 26.1206 7.53628 25.7973 7.34397ZM18.4291 13.6031L11.7438 20.2885C11.3273 20.705 10.6519 20.705 10.2353 20.2885L7.88907 17.9423C7.4725 17.5258 7.4725 16.8504 7.88907 16.4338C8.30563 16.0173 8.98107 16.0173 9.39757 16.4338L10.9895 18.0257L16.9206 12.0946C17.3371 11.6781 18.0126 11.6781 18.4291 12.0946C18.8458 12.5112 18.8458 13.1866 18.4291 13.6031Z" fill="url(#paint0_linear_295_1893)"></path>
    </g>
  </g>
  <defs>
    <linearGradient id="paint0_linear_295_1893" x1="-13.4537" y1="-3.34066" x2="94.9003" y2="34.4778" gradientUnits="userSpaceOnUse">
      <stop stop-color="#FFDC84"></stop>
      <stop offset="0.924301" stop-color="#FFBE4D"></stop>
    </linearGradient>
  </defs>
</svg>
