<svg width="599" height="284" viewBox="0 0 599 284" fill="none" xmlns="http://www.w3.org/2000/svg">
<path d="M358.512 10.0757C370.431 7.84548 382.479 6.11385 394.593 4.56415C406.721 3.12899 418.93 2.02398 431.219 1.32998C455.791 -0.0445403 480.686 0.211501 505.675 3.36481C518.16 5.02232 530.665 7.40752 543.035 11.1874C555.338 15.0348 567.694 20.2229 578.51 28.7193C583.86 32.9507 588.787 38.0782 592.314 44.1086C594.084 47.1136 595.51 50.3074 596.513 53.5955L597.779 58.5882C598.028 60.2659 598.169 61.9504 598.337 63.6416C598.579 65.3463 598.391 66.9836 598.344 68.6545C598.277 70.3255 598.209 72.0033 597.853 73.5866C597.556 75.1903 597.294 76.8276 596.924 78.4109L595.497 83.0264C595.06 84.603 594.366 86.0045 593.747 87.4734C593.081 88.9018 592.542 90.438 591.748 91.7788C590.221 94.5077 588.747 97.3106 586.943 99.8171C580.017 110.139 571.484 118.966 562.371 126.971C553.224 134.955 543.358 142.03 533.222 148.626C523.053 155.189 512.601 161.327 501.819 166.906C491.037 172.471 480.074 177.72 468.928 182.605C457.77 187.45 446.47 192.045 434.981 196.202C429.281 198.378 423.466 200.292 417.711 202.347C411.89 204.24 406.115 206.255 400.246 208.034C376.832 215.29 353.027 221.543 328.919 226.758C304.778 231.865 280.368 236.13 255.674 239.196C230.968 242.127 206.039 244.162 180.895 244.512C155.771 244.863 130.418 243.852 105.079 240.234C92.4125 238.388 79.726 235.908 67.1607 232.31C54.6358 228.678 42.1243 223.921 30.4339 216.84C27.4793 215.176 24.6997 213.06 21.9134 211.045C20.5337 210.015 19.2415 208.802 17.9291 207.67L15.9773 205.938C15.3582 205.318 14.7659 204.658 14.1669 204.018C9.24711 199.045 5.29647 192.914 2.9207 186.398C0.430512 179.896 -0.22905 172.923 0.551656 166.394C1.29198 159.824 3.53315 153.727 6.4406 148.222C12.2892 137.158 20.527 128.076 29.4782 120.098C38.4428 112.093 48.2353 105.18 58.371 98.8603C78.73 86.3145 100.489 76.147 122.894 67.5293C134.106 63.2306 145.447 59.2552 156.922 55.6572C168.451 52.1536 180.013 48.8183 191.751 45.975C180.794 50.5365 169.877 55.0913 159.217 60.0234C148.489 64.8342 137.956 69.9078 127.679 75.2846C107.165 86.0382 87.3379 97.6812 69.6845 111.022C60.8814 117.679 52.5292 124.7 45.4423 132.307C38.315 139.847 32.2241 147.939 28.8051 156.186C25.2785 164.447 24.9151 172.451 28.1321 179.155C29.6935 182.531 31.9549 185.698 35.2191 188.534C35.6027 188.891 35.9594 189.269 36.3632 189.626L37.7025 190.637C38.6178 191.297 39.3985 192.031 40.3744 192.665C42.38 193.911 44.2241 195.245 46.4855 196.343C55.0934 200.999 65.3436 204.496 76.0984 207.05C86.8534 209.651 98.113 211.497 109.548 212.73C132.484 215.054 156 215.594 179.515 214.617C203.037 213.72 226.607 211.584 250.001 208.391C273.422 205.332 296.675 201.148 319.686 196.182C342.743 191.344 365.465 185.408 387.816 178.738C410.221 172.168 432.06 164.379 453.355 155.815C474.575 147.157 495.116 137.374 514.102 126.142C523.585 120.522 532.617 114.465 540.881 107.963C549.139 101.475 556.583 94.4268 562.256 86.9276C567.97 79.4486 571.652 71.5181 571.8 64.0998C572.022 56.6814 568.529 49.6201 561.745 43.3876C558.373 40.295 554.348 37.4112 549.812 34.8845C545.263 32.378 540.39 30.0804 535.235 28.0523C524.937 23.9894 513.752 20.9775 502.344 18.5047C479.434 13.6198 455.448 11.2885 431.36 10.0353C419.3 9.40866 407.178 9.24022 395.037 9.30759C382.882 9.26717 370.721 9.67144 358.512 10.0959V10.0757Z" fill="url(#paint0_linear_204_984)"/>
<path opacity="0.47" d="M45.4355 132.307C52.5224 124.7 60.8746 117.679 69.6777 111.022C87.3378 97.6811 107.158 86.0381 127.672 75.2845C137.942 69.9077 148.482 64.8341 159.21 60.0233C169.877 55.0912 180.787 50.5364 191.744 45.9748C191.744 45.9748 -10.3043 113.758 13.2784 177.942C36.8679 242.127 211.268 238.529 321.913 213.309C432.558 188.096 605.633 119.215 581.922 56.3848C559.295 -3.58202 400.569 3.56684 363.035 9.27379C361.521 9.54331 360.006 9.79261 358.505 10.0756C370.714 9.65111 382.876 9.25358 395.03 9.28727C407.172 9.21989 419.293 9.38834 431.353 10.015C455.441 11.2682 479.427 13.5995 502.337 18.4844C513.745 20.9572 524.93 23.969 535.228 28.032C540.376 30.0533 545.249 32.3577 549.805 34.8641C554.335 37.3908 558.36 40.2814 561.738 43.3673C568.515 49.6066 572.015 56.6678 571.793 64.0794C571.645 71.4978 567.97 79.4283 562.25 86.9073C556.583 94.4065 549.132 101.454 540.874 107.943C532.61 114.445 523.578 120.502 514.095 126.122C495.109 137.354 474.568 147.137 453.348 155.795C432.06 164.359 410.221 172.148 387.809 178.717C365.458 185.394 342.737 191.324 319.679 196.161C296.668 201.127 273.415 205.311 249.994 208.37C226.6 211.564 203.037 213.693 179.508 214.596C155.993 215.58 132.477 215.041 109.541 212.71C98.0995 211.477 86.8465 209.63 76.0916 207.03C65.33 204.483 55.0799 200.986 46.4786 196.323C44.224 195.225 42.3732 193.884 40.3676 192.644C39.3917 192.011 38.611 191.277 37.6957 190.616L36.3564 189.606C35.9526 189.248 35.5959 188.878 35.2122 188.514C31.9481 185.684 29.6934 182.511 28.1253 179.135C24.915 172.431 25.2717 164.426 28.7983 156.166C32.2106 147.918 38.3081 139.82 45.4355 132.28V132.307Z" fill="url(#paint1_linear_204_984)"/>
<path d="M67.5914 255.717C91.5039 258.338 115.214 259.902 138.858 260.744C162.488 261.62 186.016 261.66 209.404 260.899C232.778 260.003 256.031 258.527 279.028 255.758C302.046 253.184 324.821 249.505 347.239 244.741C392.136 235.234 435.782 221.577 476.776 203.041C497.303 193.824 517.164 183.387 536.136 171.649C555.102 159.898 573.361 147.07 589.817 132.139C584.439 141.396 577.507 149.96 570.124 158.18C562.775 166.454 554.618 174.189 546.063 181.601C528.915 196.411 509.767 209.563 489.375 221.146C448.502 244.263 402.595 260.771 355.073 270.979C307.457 281.314 258.03 284.791 209.35 282.393C185 281.106 160.792 278.464 137.014 274.132C125.135 271.935 113.337 269.469 101.734 266.397C95.9324 264.867 90.1713 263.25 84.4506 261.546C78.7703 259.713 73.0833 257.921 67.5847 255.724L67.5914 255.717Z" fill="url(#paint2_linear_204_984)"/>
<path opacity="0.47" d="M335.03 261.795C491.394 238.549 589.81 132.139 589.81 132.139C573.355 147.07 555.095 159.905 536.13 171.649C517.157 183.38 497.296 193.824 476.769 203.041C435.782 221.577 392.136 235.234 347.232 244.741C324.814 249.512 302.046 253.184 279.021 255.758C256.024 258.527 232.771 260.003 209.397 260.899C186.01 261.66 162.481 261.62 138.851 260.744C115.201 259.902 91.4972 258.332 67.5847 255.717C67.5847 255.717 178.66 285.041 335.024 261.795H335.03Z" fill="url(#paint3_linear_204_984)"/>
<defs>
<linearGradient id="paint0_linear_204_984" x1="183.317" y1="-20.1068" x2="413.287" y2="254.978" gradientUnits="userSpaceOnUse">
<stop stop-color="#B66F29"/>
<stop offset="0.27" stop-color="#DC9A27"/>
<stop offset="0.53" stop-color="#EDB31E"/>
<stop offset="0.81" stop-color="#D7942A"/>
<stop offset="1" stop-color="#B06928"/>
</linearGradient>
<linearGradient id="paint1_linear_204_984" x1="588.722" y1="-53.7259" x2="130.171" y2="217.166" gradientUnits="userSpaceOnUse">
<stop stop-color="white"/>
<stop offset="1" stop-color="white" stop-opacity="0"/>
</linearGradient>
<linearGradient id="paint2_linear_204_984" x1="82.152" y1="297.4" x2="579.548" y2="167.564" gradientUnits="userSpaceOnUse">
<stop stop-color="#B66F29"/>
<stop offset="0.27" stop-color="#DC9A27"/>
<stop offset="0.53" stop-color="#EDB31E"/>
<stop offset="0.81" stop-color="#D7942A"/>
<stop offset="1" stop-color="#B06928"/>
</linearGradient>
<linearGradient id="paint3_linear_204_984" x1="572.767" y1="74.7612" x2="187.581" y2="279.85" gradientUnits="userSpaceOnUse">
<stop stop-color="white"/>
<stop offset="1" stop-color="white" stop-opacity="0"/>
</linearGradient>
</defs>
</svg>
